
<svg xmlns="http://www.w3.org/2000/svg">
        <symbol id="instagram" viewBox="0 0 512 512">
            <g>
			<path d="M256,136.533c-65.877,0-119.467,53.589-119.467,119.467S190.123,375.467,256,375.467S375.467,321.877,375.467,256
				S321.877,136.533,256,136.533z M256,349.867c-51.755,0-93.867-42.112-93.867-93.867c0-51.755,42.112-93.867,93.867-93.867
				c51.755,0,93.867,42.112,93.867,93.867C349.867,307.755,307.755,349.867,256,349.867z"/>
			<path d="M256,179.2c-42.342,0-76.8,34.458-76.8,76.8s34.458,76.8,76.8,76.8s76.8-34.458,76.8-76.8S298.342,179.2,256,179.2z"/>
			<path d="M366.225,68.267h-220.45c-42.735,0-77.508,34.773-77.508,77.508v220.45c0,42.735,34.773,77.508,77.508,77.508h220.45
				c42.735,0,77.508-34.773,77.508-77.508v-220.45C443.733,103.04,408.96,68.267,366.225,68.267z M256,392.533
				c-75.281,0-136.533-61.252-136.533-136.533S180.719,119.467,256,119.467S392.533,180.719,392.533,256
				S331.281,392.533,256,392.533z M392.533,145.067c-14.14,0-25.6-11.46-25.6-25.6s11.46-25.6,25.6-25.6
				c14.14,0,25.6,11.46,25.6,25.6S406.673,145.067,392.533,145.067z"/>
			<path d="M366.225,0h-220.45C65.399,0,0,65.399,0,145.775v220.45C0,446.601,65.399,512,145.775,512h220.45
				C446.601,512,512,446.601,512,366.225v-220.45C512,65.399,446.601,0,366.225,0z M460.8,366.225
				c0,52.147-42.428,94.575-94.575,94.575h-220.45c-52.147,0-94.575-42.428-94.575-94.575v-220.45
				c0-52.147,42.428-94.575,94.575-94.575h220.45c52.147,0,94.575,42.428,94.575,94.575V366.225z"/>
		</g>
        </symbol>
        <symbol id="kickstarter" viewBox="0 0 512 512">
            <g>
			<path d="M472.533,0H39.467C17.707,0,0,17.707,0,39.467v433.067C0,494.302,17.707,512,39.467,512h433.067
				C494.285,512,512,494.302,512,472.533V39.467C512,17.707,494.285,0,472.533,0z M383.172,373.794
				c-2.551,14.447-10.573,27.034-22.596,35.456c-9.336,6.545-20.233,9.958-31.403,9.958c-3.208,0-6.434-0.282-9.66-0.845
				c-14.447-2.552-27.042-10.581-35.456-22.596L230.4,317.935v46.336c0,30.293-25.131,54.929-56.004,54.929
				c-30.293,0-54.929-24.636-54.929-54.929V147.738c0-30.293,24.636-54.938,54.929-54.938c30.874,0,56.004,24.644,56.004,54.938
				v46.251l53.641-77.713c8.448-12.066,21.043-20.096,35.49-22.639c14.447-2.551,29.03,0.691,41.054,9.114
				c12.015,8.405,20.028,21.001,22.579,35.456c2.551,14.447-0.691,29.022-9.105,41.045L320.316,256l53.743,76.74
				C382.481,344.764,385.724,359.347,383.172,373.794z"/>
			<path d="M299.481,256.003l60.595-86.545c5.803-8.286,8.038-18.338,6.281-28.297c-1.758-9.958-7.287-18.637-15.565-24.431
				c-8.286-5.811-18.338-8.055-28.297-6.289c-9.967,1.758-18.637,7.287-24.44,15.573l-84.727,122.743V147.732
				c0-20.523-17.835-37.862-38.929-37.862c-20.881,0-37.871,16.99-37.871,37.862v216.542c0,20.873,16.99,37.862,37.871,37.862
				c21.094,0,38.929-17.34,38.929-37.862V263.111l84.745,122.923c5.769,8.235,14.447,13.764,24.405,15.522
				c9.95,1.766,20.019-0.486,28.305-6.289s13.824-14.481,15.582-24.439c1.758-9.958-0.478-20.002-6.281-28.288L299.481,256.003z"/>
		</g>

        </symbol>
		<symbol id="facebook" viewBox="0 0 512 512">

		<g>
			<path d="M469.333,0H42.667C19.14,0,0,19.14,0,42.667v426.667C0,492.86,19.14,512,42.667,512h196.267V341.333h-68.267v-102.4
				h68.267v-42.667c0-57.489,44.672-106.197,101.7-110.908l94.566-0.026v102.4h-85.333c-4.702,0-8.533,3.831-8.533,8.533v42.667
				h85.333v102.4h-85.333V512h128C492.86,512,512,492.86,512,469.333V42.667C512,19.14,492.86,0,469.333,0z"/>
			<path d="M409.6,256h-85.333v-59.733c0-14.114,11.486-25.6,25.6-25.6h68.267V102.4h-76.8C293.794,106.351,256,147.593,256,196.267
				V256h-68.267v68.267H256V512h68.267V324.267H409.6V256z"/>
		</g>
		</symbol>
		<symbol id="whatsapp" viewBox="0 0 507.249 507.249">
		<g>
			<path d="M254.674,0.05C116.258,0.05,3.643,112.439,3.643,250.586c0,42.823,11.507,85.538,33.305,123.761L0,507.199
				l135.252-36.461c39.432,21.546,80.653,32.919,119.422,32.919c136.914,0,252.575-115.897,252.575-253.071
				C507.249,112.439,393.946,0.05,254.674,0.05z M254.674,461.69c-36.663,0-74.324-11.163-108.938-32.281l-4.365-2.677
				l-82.516,21.244l22.478-79.83l-2.946-4.591C56.941,330.173,45.61,291.11,45.61,250.586c0-115.007,93.788-208.569,209.064-208.569
				c116.132,0,210.608,93.562,210.608,208.569C465.282,366.986,370.805,461.69,254.674,461.69z"/>
			<path d="M299.502,313.353c-3.785,4.919-10.265,6.841-16.132,4.784c-14.814-5.204-65.293-26.322-92.957-79.603
				c-2.736-5.296-1.998-11.6,1.863-16.073l19.909-23.032l-22.855-53.105l-15.553-0.848c-0.193-0.017-0.394-0.017-0.596-0.017
				c-2.552,0-5.002,0.898-6.925,2.577c-6.387,5.548-17.584,17.022-20.849,31.559c-5.128,22.83,3.374,50.831,23.921,78.848
				c13.539,18.466,54.75,74.651,132.868,96.734c18.608,5.263,35.412,3.257,49.882-6.001c9.292-5.943,15.99-15.738,18.373-26.876
				l2.51-11.709l-52.937-24.173L299.502,313.353z"/>
			<path d="M254.673,58.8c-106.026,0-192.277,86.033-192.277,191.79c0,37.292,10.408,73.224,30.116,103.894l7.034,10.937
				l-16.627,59.023l61.138-15.738l10.441,6.379c31.954,19.506,66.602,29.814,100.176,29.814
				c106.874,0,193.821-87.166,193.821-194.308C448.494,144.833,361.547,58.8,254.673,58.8z M389.371,314.104l-2.51,11.717
				c-3.307,15.486-12.699,29.15-25.734,37.493c-12.045,7.697-25.189,11.558-39.29,11.558c-7.789,0-15.872-1.175-24.215-3.534
				c-83.666-23.661-127.446-83.347-141.832-102.962c-23.46-31.987-32.969-64.823-26.767-92.454
				c4.323-19.221,18.281-33.658,26.213-40.549c5.389-4.692,12.372-7.017,19.464-6.664l15.704,0.856
				c6.32,0.344,11.793,4.18,14.294,10.005l22.889,53.525c2.459,5.775,1.402,12.565-2.703,17.307L206.05,232.2
				c24.014,44.989,66.283,63.983,81.24,69.498l19.75-25.608c4.751-6.136,12.985-8.15,20.01-4.919l53.08,24.467
				C387.197,298.895,390.999,306.491,389.371,314.104z"/>
		</g>
		</symbol>
    </svg>